<svg xmlns:dc="http://purl.org/dc/elements/1.1/" xmlns:cc="http://creativecommons.org/ns#" xmlns:rdf="http://www.w3.org/1999/02/22-rdf-syntax-ns#" xmlns:svg="http://www.w3.org/2000/svg" xmlns="http://www.w3.org/2000/svg" xmlns:sodipodi="http://sodipodi.sourceforge.net/DTD/sodipodi-0.dtd" xmlns:inkscape="http://www.inkscape.org/namespaces/inkscape" version="1.1" x="0px" y="0px" viewBox="0 0 100 100"><g transform="translate(0,-952.36218)"><path style="text-indent:0;text-transform:none;direction:ltr;block-progression:tb;baseline-shift:baseline;color:#000000;enable-background:accumulate;" d="M 50,9 C 27.391859,9 9,27.39184 9,50 9,72.6081 27.391859,91 50,91 72.608141,91 91,72.6081 91,50 91,27.39184 72.608141,9 50,9 z m 0,6 C 69.3655,15 85,30.63448 85,50 85,69.3655 69.3655,85 50,85 30.6345,85 15,69.3655 15,50 15,30.63448 30.6345,15 50,15 z M 39,28 c -4.935022,0 -9,4.06497 -9,9 -0.02241,1.584938 1.414904,3.042726 3,3.042726 1.585096,0 3.022415,-1.457788 3,-3.042726 0,-1.69241 1.307604,-3 3,-3 1.692394,0 3,1.3076 3,3 -0.02242,1.584938 1.414904,3.042726 3,3.042726 1.585096,0 3.022415,-1.457788 3,-3.042726 0,-4.93504 -4.064978,-9 -9,-9 z m 22,0 c -4.935022,0 -9,4.06496 -9,9 -0.02242,1.584938 1.414904,3.042726 3,3.042726 1.585096,0 3.022415,-1.457788 3,-3.042726 0,-1.6924 1.307606,-3 3,-3 1.692396,0 3,1.30759 3,3 -0.02242,1.584938 1.414904,3.042726 3,3.042726 1.585096,0 3.022415,-1.457788 3,-3.042726 0,-4.93503 -4.064978,-9 -9,-9 z M 26.6875,48 c -1.610571,0.167098 -2.900845,1.836865 -2.65625,3.4375 C 26.089185,64.65 36.862797,75 50,75 63.137203,75 73.910817,64.65 75.96875,51.4375 76.219002,49.738465 74.717366,47.999728 73,48 c -15.429215,-10e-7 -30.906057,0 -46.3125,0 z m 4.09375,6 38.4375,0 C 66.457898,62.7648 58.849352,69 50,69 41.150648,69 33.542103,62.7648 30.78125,54 z" transform="translate(0,952.36218)" fill="#000000" fill-opacity="1" fill-rule="nonzero" stroke="none" marker="none" visibility="visible" display="inline" overflow="visible"/></g></svg>