<svg width="32" height="34" viewBox="0 0 32 34" fill="none" xmlns="http://www.w3.org/2000/svg">
<g filter="url(#filter0_d)">
<path fill-rule="evenodd" clip-rule="evenodd" d="M9.5 2L7 2.25687V4.83329H1V25H31V4.83329H26V1.5L21 2.5L16.5 4.5L9.5 2Z" fill="url(#paint0_linear)"/>
<path d="M30 3.71196H27V1.71196C27 1.32496 26.777 0.972964 26.427 0.807964C26.314 0.754964 25.277 0.287964 23.627 0.287964C22.59 0.287964 21.535 0.472964 20.487 0.838964C18.689 1.47396 16.919 2.72596 16 3.43396C15.081 2.72596 13.31 1.47396 11.51 0.838964C10.466 0.473964 9.41 0.288964 8.373 0.288964C6.723 0.288964 5.685 0.755964 5.573 0.808964C5.223 0.972964 5 1.32496 5 1.71196V3.71196H2C1.448 3.71196 1 4.15996 1 4.71196V24.712C1 25.264 1.448 25.712 2 25.712H16H30C30.552 25.712 31 25.264 31 24.712V4.71196C31 4.15996 30.552 3.71196 30 3.71196ZM21.15 2.72596C21.982 2.43496 22.815 2.28796 23.627 2.28796C24.198 2.28796 24.667 2.36196 25.001 2.43996V4.71196V20.39C24.611 20.325 24.15 20.278 23.627 20.278C22.59 20.278 21.535 20.463 20.488 20.829C20.192 20.933 19.895 21.058 19.601 21.193C19.5 21.239 19.402 21.292 19.302 21.34C19.11 21.434 18.919 21.528 18.732 21.63C18.618 21.692 18.51 21.755 18.398 21.819C18.231 21.915 18.066 22.01 17.906 22.109C17.794 22.178 17.688 22.245 17.581 22.314C17.432 22.409 17.29 22.502 17.151 22.596C17.103 22.628 17.048 22.662 17.002 22.694V5.18796C17.729 4.61296 19.481 3.31496 21.15 2.72596ZM7 2.43996C7.335 2.36196 7.803 2.28796 8.374 2.28796C9.186 2.28796 10.019 2.43496 10.848 2.72496C12.519 3.31496 14.272 4.61296 15.001 5.18796V22.695C14.957 22.664 14.904 22.632 14.858 22.601C14.709 22.5 14.557 22.401 14.396 22.298C14.296 22.234 14.197 22.172 14.093 22.108C13.927 22.006 13.758 21.908 13.585 21.809C13.478 21.748 13.374 21.687 13.265 21.628C13.077 21.525 12.885 21.431 12.69 21.336C12.591 21.288 12.495 21.236 12.395 21.19C12.102 21.056 11.806 20.932 11.511 20.828C10.467 20.463 9.411 20.278 8.374 20.278C7.851 20.278 7.39 20.325 7 20.39V4.71196V2.43996ZM3 5.71196H5V21.702C5 21.905 5.069 22.095 5.181 22.258C5.256 22.367 5.347 22.466 5.461 22.54C5.546 22.595 5.64 22.631 5.736 22.658C5.8 22.676 5.864 22.691 5.93 22.696C6.035 22.704 6.14 22.689 6.243 22.664C6.302 22.649 6.362 22.636 6.418 22.611C6.424 22.608 6.996 22.356 7.944 22.293C8.079 22.284 8.222 22.279 8.373 22.279C9.185 22.279 10.018 22.426 10.847 22.716C11.159 22.826 11.474 22.967 11.786 23.118C11.869 23.158 11.951 23.2 12.034 23.242C12.287 23.372 12.537 23.509 12.779 23.651C12.815 23.672 12.851 23.692 12.886 23.713H3V5.71196ZM29 23.712H19.113C19.147 23.691 19.183 23.672 19.217 23.652C19.458 23.509 19.708 23.372 19.962 23.242C20.045 23.2 20.129 23.157 20.213 23.117C20.524 22.967 20.838 22.826 21.15 22.716C21.982 22.425 22.815 22.278 23.627 22.278C24.828 22.278 25.574 22.607 25.574 22.607C25.884 22.753 26.247 22.73 26.536 22.547C26.825 22.364 27 22.045 27 21.703V5.71196H29V23.712Z" fill="black"/>
</g>
<defs>
<filter id="filter0_d" x="-3" y="0.287964" width="38" height="33.424" filterUnits="userSpaceOnUse" color-interpolation-filters="sRGB">
<feFlood flood-opacity="0" result="BackgroundImageFix"/>
<feColorMatrix in="SourceAlpha" type="matrix" values="0 0 0 0 0 0 0 0 0 0 0 0 0 0 0 0 0 0 127 0"/>
<feOffset dy="4"/>
<feGaussianBlur stdDeviation="2"/>
<feColorMatrix type="matrix" values="0 0 0 0 0 0 0 0 0 0 0 0 0 0 0 0 0 0 0.25 0"/>
<feBlend mode="normal" in2="BackgroundImageFix" result="effect1_dropShadow"/>
<feBlend mode="normal" in="SourceGraphic" in2="effect1_dropShadow" result="shape"/>
</filter>
<linearGradient id="paint0_linear" x1="1" y1="12.6905" x2="30.5004" y2="12.203" gradientUnits="userSpaceOnUse">
<stop stop-color="#FFB70B"/>
<stop offset="0.508287" stop-color="#7F15A1"/>
<stop offset="1" stop-color="#A10010"/>
</linearGradient>
</defs>
</svg>
