<svg xmlns:dc="http://purl.org/dc/elements/1.1/" xmlns:cc="http://creativecommons.org/ns#" xmlns:rdf="http://www.w3.org/1999/02/22-rdf-syntax-ns#" xmlns:svg="http://www.w3.org/2000/svg" xmlns="http://www.w3.org/2000/svg" xmlns:sodipodi="http://sodipodi.sourceforge.net/DTD/sodipodi-0.dtd" xmlns:inkscape="http://www.inkscape.org/namespaces/inkscape" version="1.1" x="0px" y="0px" viewBox="0 0 100 100"><g transform="translate(0,-952.36218)"><path style="font-size:medium;font-style:normal;font-variant:normal;font-weight:normal;font-stretch:normal;text-indent:0;text-align:start;text-decoration:none;line-height:normal;letter-spacing:normal;word-spacing:normal;text-transform:none;direction:ltr;block-progression:tb;writing-mode:lr-tb;text-anchor:start;baseline-shift:baseline;opacity:1;color:#000000;fill:#000000;fill-opacity:1;fill-rule:nonzero;stroke:none;stroke-width:4.39024401000000000;marker:none;visibility:visible;display:inline;overflow:visible;enable-background:accumulate;font-family:Sans;-inkscape-font-specification:Sans" d="M 50 6 C 25.735005 6 6 25.73498 6 50 C 6 74.265 25.735005 94 50 94 C 74.264995 94 94 74.265 94 50 C 94 25.73498 74.264995 6 50 6 z M 50 12 C 71.022356 12 88 28.97762 88 50 C 88 71.0223 71.022356 88 50 88 C 28.977644 88 12 71.0223 12 50 C 12 28.97762 28.977644 12 50 12 z M 36 29 C 31.617256 29 28 32.61726 28 37 C 28 41.38274 31.617256 45 36 45 C 40.382745 45 44 41.38274 44 37 C 44 32.61726 40.382745 29 36 29 z M 64 29 C 59.617256 29 56 32.61726 56 37 C 56 41.38274 59.617256 45 64 45 C 68.382745 45 72 41.38274 72 37 C 72 32.61726 68.382745 29 64 29 z M 36 35 C 37.140104 35 38 35.8599 38 37 C 38 38.1401 37.140104 39 36 39 C 34.859897 39 34 38.1401 34 37 C 34 35.8599 34.859897 35 36 35 z M 64 35 C 65.140104 35 66 35.8599 66 37 C 66 38.1401 65.140104 39 64 39 C 62.859897 39 62 38.1401 62 37 C 62 35.8599 62.859897 35 64 35 z M 50 52 C 40.928707 51.99 34.278685 56.0092 30.75 60 A 3.0003 3.0003 0 1 0 35.25 63.96875 C 37.599451 61.31155 42.735255 57.9932 50 58 C 57.263312 57.99 62.399872 61.31075 64.75 63.96875 A 3.0003 3.0003 0 1 0 69.25 60 C 65.721986 56.0099 59.072724 51.9878 50 52 z " transform="translate(0,952.36218)"/></g></svg>